<svg width="12" height="13" viewBox="0 0 12 13" fill="none" xmlns="http://www.w3.org/2000/svg">
<path d="M10.86 6.04423H9.42C9.05618 6.04245 8.70681 6.18651 8.45 6.44423L6.24 8.65423V3.87923C6.23844 3.62635 6.08465 3.39933 5.85039 3.30409C5.61613 3.20886 5.34756 3.26417 5.17 3.44423L2.755 5.85923C2.63768 5.97838 2.47721 6.04509 2.31 6.04423H0.875C0.667893 6.04423 0.5 6.21212 0.5 6.41923C0.5 6.62633 0.667893 6.79423 0.875 6.79423H2.31C2.6847 6.80169 3.04609 6.65532 3.31 6.38923L5.48 4.18423V8.95923C5.47949 9.21134 5.63169 9.43867 5.865 9.53423C5.94062 9.56751 6.02238 9.58455 6.105 9.58423C6.27059 9.58431 6.42922 9.51761 6.545 9.39923L8.98 6.97423C9.09723 6.85861 9.25535 6.79393 9.42 6.79423H10.86C11.0671 6.79423 11.235 6.62633 11.235 6.41923C11.235 6.21212 11.0671 6.04423 10.86 6.04423V6.04423Z" fill="white"/>
</svg>
