<svg width="12" height="13" viewBox="0 0 12 13" fill="none" xmlns="http://www.w3.org/2000/svg">
<path d="M4.325 4.295C4.17725 4.15732 3.947 4.16138 3.80419 4.30419C3.66138 4.447 3.65732 4.67725 3.795 4.825L5.685 6.715V9.06C5.685 9.26711 5.85289 9.435 6.06 9.435C6.26711 9.435 6.435 9.26711 6.435 9.06V6.56C6.43491 6.46058 6.39535 6.36526 6.325 6.295L4.325 4.295Z" fill="white"/>
<path fill-rule="evenodd" clip-rule="evenodd" d="M5 1.5H7.12C8.18087 1.5 9.19828 1.92143 9.94843 2.67157C10.6986 3.42172 11.12 4.43913 11.12 5.5V7.62C11.12 9.82914 9.32914 11.62 7.12 11.62H5C2.79086 11.62 1 9.82914 1 7.62V5.5C1 3.29086 2.79086 1.5 5 1.5ZM7.12 10.87C8.91378 10.8672 10.3672 9.41378 10.37 7.62V5.5C10.3672 3.70622 8.91378 2.25275 7.12 2.25H5C3.20622 2.25275 1.75275 3.70622 1.75 5.5V7.62C1.75275 9.41378 3.20622 10.8672 5 10.87H7.12Z" fill="white"/>
</svg>
