<svg width="12" height="13" viewBox="0 0 12 13" fill="none" xmlns="http://www.w3.org/2000/svg">
<path fill-rule="evenodd" clip-rule="evenodd" d="M5 4.88889H7C7.55228 4.88889 8 5.3366 8 5.88889V7.88889C8 8.44117 7.55228 8.88889 7 8.88889H5C4.44772 8.88889 4 8.44117 4 7.88889V5.88889C4 5.3366 4.44772 4.88889 5 4.88889ZM7 8.13889C7.13807 8.13889 7.25 8.02696 7.25 7.88889V5.88889C7.25 5.75081 7.13807 5.63889 7 5.63889H5C4.86193 5.63889 4.75 5.75081 4.75 5.88889V7.88889C4.75 8.02696 4.86193 8.13889 5 8.13889H7Z" fill="white"/>
<path fill-rule="evenodd" clip-rule="evenodd" d="M9.5 7.51389H11C11.2071 7.51389 11.375 7.68178 11.375 7.88889C11.375 8.09599 11.2071 8.26389 11 8.26389H9.5V8.38889C9.5 9.49345 8.60457 10.3889 7.5 10.3889H7.375V11.8889C7.375 12.096 7.20711 12.2639 7 12.2639C6.79289 12.2639 6.625 12.096 6.625 11.8889V10.3889H5.375V11.8889C5.375 12.096 5.20711 12.2639 5 12.2639C4.79289 12.2639 4.625 12.096 4.625 11.8889V10.3889H4.5C3.39543 10.3889 2.5 9.49345 2.5 8.38889V8.26389H1C0.792893 8.26389 0.625 8.09599 0.625 7.88889C0.625 7.68178 0.792893 7.51389 1 7.51389H2.5V6.26389H1C0.792893 6.26389 0.625 6.09599 0.625 5.88889C0.625 5.68178 0.792893 5.51389 1 5.51389H2.5V5.38889C2.5 4.28432 3.39543 3.38889 4.5 3.38889H4.625V1.88889C4.625 1.68178 4.79289 1.51389 5 1.51389C5.20711 1.51389 5.375 1.68178 5.375 1.88889V3.38889H6.625V1.88889C6.625 1.68178 6.79289 1.51389 7 1.51389C7.20711 1.51389 7.375 1.68178 7.375 1.88889V3.38889H7.5C8.60457 3.38889 9.5 4.28432 9.5 5.38889V5.51389H11C11.2071 5.51389 11.375 5.68178 11.375 5.88889C11.375 6.09599 11.2071 6.26389 11 6.26389H9.5V7.51389ZM7.5 9.63889C8.19036 9.63889 8.75 9.07924 8.75 8.38889V5.38889C8.75 4.69853 8.19036 4.13889 7.5 4.13889H4.5C3.80964 4.13889 3.25 4.69853 3.25 5.38889V8.38889C3.25 9.07924 3.80964 9.63889 4.5 9.63889H7.5Z" fill="white"/>
</svg>
