<svg width="12" height="13" viewBox="0 0 12 13" fill="none" xmlns="http://www.w3.org/2000/svg">
<path d="M10.1585 2.5778C9.39367 2.22686 8.57349 1.9683 7.71595 1.82021C7.70033 1.81735 7.68473 1.8245 7.67669 1.83878C7.57121 2.02639 7.45437 2.27114 7.37255 2.46351C6.4502 2.32543 5.53259 2.32543 4.62916 2.46351C4.54732 2.26686 4.42624 2.02639 4.32029 1.83878C4.31224 1.82497 4.29664 1.81783 4.28103 1.82021C3.42395 1.96783 2.60378 2.22638 1.83847 2.5778C1.83184 2.58065 1.82616 2.58542 1.82239 2.59161C0.266696 4.91579 -0.159475 7.18284 0.0495901 9.42179C0.050536 9.43274 0.0566849 9.44322 0.065199 9.44988C1.0916 10.2036 2.08585 10.6613 3.06164 10.9646C3.07726 10.9693 3.0938 10.9636 3.10374 10.9508C3.33456 10.6355 3.54032 10.3032 3.71674 9.95366C3.72715 9.93319 3.71721 9.9089 3.69593 9.90081C3.36957 9.777 3.0588 9.62606 2.75986 9.45464C2.73622 9.44084 2.73433 9.40702 2.75608 9.39082C2.81899 9.34369 2.88191 9.29464 2.94198 9.24512C2.95285 9.23607 2.96799 9.23417 2.98077 9.23988C4.94464 10.1365 7.07077 10.1365 9.01148 9.23988C9.02425 9.23369 9.0394 9.2356 9.05074 9.24464C9.11082 9.29417 9.17373 9.34369 9.23711 9.39082C9.25886 9.40702 9.25744 9.44084 9.2338 9.45464C8.93486 9.62939 8.6241 9.777 8.29726 9.90033C8.27598 9.90843 8.26651 9.93319 8.27692 9.95366C8.45713 10.3027 8.66288 10.6351 8.88945 10.9503C8.89891 10.9636 8.91593 10.9693 8.93155 10.9646C9.91207 10.6613 10.9063 10.2036 11.9327 9.44988C11.9417 9.44322 11.9474 9.43321 11.9483 9.42226C12.1985 6.83379 11.5292 4.58533 10.1741 2.59208C10.1708 2.58542 10.1651 2.58065 10.1585 2.5778ZM4.01001 8.0585C3.41875 8.0585 2.93157 7.51568 2.93157 6.84904C2.93157 6.1824 3.4093 5.63957 4.01001 5.63957C4.61544 5.63957 5.0979 6.18716 5.08844 6.84904C5.08844 7.51568 4.6107 8.0585 4.01001 8.0585ZM7.99737 8.0585C7.40613 8.0585 6.91895 7.51568 6.91895 6.84904C6.91895 6.1824 7.39666 5.63957 7.99737 5.63957C8.60282 5.63957 9.08527 6.18716 9.07582 6.84904C9.07582 7.51568 8.60282 8.0585 7.99737 8.0585Z" fill="white"/>
</svg>
