<svg width="12" height="13" viewBox="0 0 12 13" fill="none" xmlns="http://www.w3.org/2000/svg">
<g clip-path="url(#clip0_3_730)">
<path fill-rule="evenodd" clip-rule="evenodd" d="M6.00496 0.5C2.68437 0.5 0 3.20416 0 6.54958C0 9.22376 1.71997 11.4874 4.10603 12.2886C4.40435 12.3488 4.51362 12.1584 4.51362 11.9982C4.51362 11.858 4.50378 11.3773 4.50378 10.8764C2.83335 11.237 2.4855 10.1552 2.4855 10.1552C2.21705 9.4541 1.81929 9.2739 1.81929 9.2739C1.27255 8.90331 1.85911 8.90331 1.85911 8.90331C2.46558 8.94338 2.78381 9.52429 2.78381 9.52429C3.32059 10.4457 4.18555 10.1853 4.53353 10.025C4.58319 9.63442 4.74237 9.364 4.91138 9.2138C3.57908 9.07355 2.17734 8.55275 2.17734 6.22902C2.17734 5.56797 2.4158 5.02714 2.79365 4.60652C2.73403 4.45631 2.5252 3.83522 2.85338 3.00393C2.85338 3.00393 3.36042 2.84365 4.50366 3.62491C4.99313 3.49248 5.4979 3.42512 6.00496 3.42455C6.512 3.42455 7.02886 3.49474 7.50614 3.62491C8.64951 2.84365 9.15655 3.00393 9.15655 3.00393C9.48473 3.83522 9.27577 4.45631 9.21616 4.60652C9.60396 5.02714 9.83259 5.56797 9.83259 6.22902C9.83259 8.55275 8.43085 9.06347 7.0886 9.2138C7.30739 9.40407 7.49619 9.76459 7.49619 10.3355C7.49619 11.1468 7.48635 11.7979 7.48635 11.9981C7.48635 12.1584 7.59575 12.3488 7.89395 12.2887C10.28 11.4873 12 9.22376 12 6.54958C12.0098 3.20416 9.3156 0.5 6.00496 0.5Z" fill="white"/>
</g>
<defs>
<clipPath id="clip0_3_730">
<rect width="12" height="12" fill="white" transform="translate(0 0.5)"/>
</clipPath>
</defs>
</svg>
