<svg width="16" height="16" viewBox="0 0 16 16" fill="none" xmlns="http://www.w3.org/2000/svg">
<path fill-rule="evenodd" clip-rule="evenodd" d="M5.33333 1.33333H10.3867C12.5958 1.33333 14.3867 3.12419 14.3867 5.33333V10.3867C14.3867 12.5958 12.5958 14.3867 10.3867 14.3867H5.33333C3.12419 14.3867 1.33333 12.5958 1.33333 10.3867V5.33333C1.33333 3.12419 3.12419 1.33333 5.33333 1.33333ZM10.3867 13.3867C12.042 13.383 13.383 12.042 13.3867 10.3867V5.33333C13.383 3.678 12.042 2.33699 10.3867 2.33333H5.33333C3.678 2.33699 2.33699 3.678 2.33333 5.33333V10.3867C2.33699 12.042 3.678 13.383 5.33333 13.3867H10.3867Z" fill="white"/>
<path d="M7.86 5.36C7.58535 5.36359 7.36359 5.58535 7.36 5.86C7.35997 6.13724 7.58278 6.36301 7.86 6.36666C7.99433 6.36853 8.12362 6.31552 8.21798 6.2199C8.31235 6.12427 8.36364 5.99429 8.35999 5.86C8.35999 5.58385 8.13614 5.36 7.86 5.36Z" fill="white"/>
<path d="M7.86 7.28C7.58385 7.28 7.36 7.50385 7.36 7.78V9.86C7.36 10.1361 7.58385 10.36 7.86 10.36C8.13614 10.36 8.36 10.1361 8.36 9.86V7.79333C8.3655 7.65789 8.31505 7.52616 8.22047 7.42906C8.12589 7.33196 7.99553 7.27805 7.86 7.28Z" fill="white"/>
</svg>
