<svg width="13" height="12" viewBox="0 0 13 12" fill="none" xmlns="http://www.w3.org/2000/svg">
<path fill-rule="evenodd" clip-rule="evenodd" d="M6.22 1H6.78C9.38679 1 11.5 3.11322 11.5 5.72V6.28C11.5 8.88678 9.38679 11 6.78 11H6.22C3.61322 11 1.5 8.88678 1.5 6.28V5.72C1.5 3.11322 3.61322 1 6.22 1ZM6.78 10.25C8.96577 10.2337 10.7337 8.46577 10.75 6.28V5.72C10.7337 3.53423 8.96577 1.76633 6.78 1.75H6.22C4.03423 1.76633 2.26633 3.53423 2.25 5.72V6.28C2.26633 8.46577 4.03423 10.2337 6.22 10.25H6.78Z" fill="black"/>
<path d="M8.5 5.625H4.5C4.29289 5.625 4.125 5.79289 4.125 6C4.125 6.20711 4.29289 6.375 4.5 6.375H8.5C8.70711 6.375 8.875 6.20711 8.875 6C8.875 5.79289 8.70711 5.625 8.5 5.625Z" fill="black"/>
</svg>
