<svg width="13" height="13" viewBox="0 0 13 13" fill="none" xmlns="http://www.w3.org/2000/svg">
<path fill-rule="evenodd" clip-rule="evenodd" d="M10.29 8.855L10.41 9.425C10.5237 9.9178 10.4114 10.4356 10.1038 10.8371C9.79622 11.2385 9.32541 11.4816 8.82 11.5H4.18C3.67459 11.4816 3.20379 11.2385 2.89617 10.8371C2.58856 10.4356 2.47628 9.9178 2.59 9.425L2.71 8.855C2.84802 8.08339 3.51131 7.51634 4.295 7.5H8.705C9.48869 7.51634 10.152 8.08339 10.29 8.855ZM8.82 10.745C9.0739 10.7421 9.31284 10.6244 9.47 10.425V10.43C9.66285 10.1881 9.73798 9.87289 9.675 9.57L9.555 9C9.48842 8.57759 9.13232 8.26129 8.705 8.245H4.295C3.86769 8.26129 3.51158 8.57759 3.445 9L3.325 9.57C3.26358 9.87129 3.33863 10.1843 3.53 10.425C3.68717 10.6244 3.92611 10.7421 4.18 10.745H8.82Z" fill="white"/>
<path fill-rule="evenodd" clip-rule="evenodd" d="M6.74999 6.49999H6.24999C5.14542 6.49999 4.24999 5.60456 4.24999 4.49999V3.17999C4.24866 2.73402 4.42523 2.30593 4.74058 1.99058C5.05593 1.67523 5.48402 1.49866 5.92999 1.49999H7.06999C7.51597 1.49866 7.94406 1.67523 8.25941 1.99058C8.57476 2.30593 8.75133 2.73402 8.74999 3.17999V4.49999C8.74999 5.60456 7.85456 6.49999 6.74999 6.49999ZM5.92999 2.24999C5.41637 2.24999 4.99999 2.66637 4.99999 3.17999V4.49999C4.99999 5.19035 5.55964 5.74999 6.24999 5.74999H6.74999C7.44035 5.74999 7.99999 5.19035 7.99999 4.49999V3.17999C7.99999 2.93334 7.90201 2.69679 7.7276 2.52238C7.55319 2.34797 7.31665 2.24999 7.06999 2.24999H5.92999Z" fill="white"/>
</svg>
