<svg width="13" height="12" viewBox="0 0 13 12" fill="none" xmlns="http://www.w3.org/2000/svg">
<path fill-rule="evenodd" clip-rule="evenodd" d="M5.55493 2.75504L9.17993 4.85004C9.64254 5.11839 9.92728 5.61274 9.92728 6.14754C9.92728 6.68234 9.64254 7.17669 9.17993 7.44504L5.55493 9.54004C5.09068 9.80807 4.51868 9.80798 4.05452 9.5398C3.59035 9.27161 3.30459 8.77611 3.30493 8.24004V4.05504C3.30459 3.51897 3.59035 3.02346 4.05452 2.75528C4.51868 2.4871 5.09068 2.487 5.55493 2.75504ZM5.10493 8.76004L8.72993 6.67004C8.91646 6.56356 9.03112 6.36481 9.02993 6.15004C9.03187 5.93376 8.91725 5.73318 8.72993 5.62504L5.10493 3.53504C5.01427 3.48054 4.91071 3.4512 4.80493 3.45004C4.4708 3.45004 4.19993 3.72091 4.19993 4.05504V8.24004C4.19993 8.4005 4.26367 8.55438 4.37713 8.66784C4.49059 8.7813 4.64448 8.84504 4.80493 8.84504C4.91071 8.84388 5.01427 8.81454 5.10493 8.76004Z" fill="black"/>
</svg>
