<svg width="12" height="13" viewBox="0 0 12 13" fill="none" xmlns="http://www.w3.org/2000/svg">
<path fill-rule="evenodd" clip-rule="evenodd" d="M5.83538 4.90914H5.88038V4.91914C6.20913 4.93195 6.51197 5.10102 6.69538 5.37414C6.94256 5.72131 6.94256 6.18698 6.69538 6.53414C6.51195 6.80795 6.20959 6.97861 5.88038 6.99414H5.83538C5.4457 7.02115 5.07349 6.82856 4.87044 6.49487C4.66738 6.16118 4.66738 5.7421 4.87044 5.40841C5.07349 5.07472 5.4457 4.88214 5.83538 4.90914ZM6.09539 5.79414C6.04827 5.7185 5.96899 5.66872 5.88038 5.65914H5.85538C5.74175 5.64425 5.62978 5.69652 5.56823 5.79319C5.50667 5.88986 5.50667 6.01343 5.56823 6.11009C5.62978 6.20676 5.74175 6.25903 5.85538 6.24414H5.88038C5.96762 6.23435 6.04619 6.18684 6.09539 6.11414C6.1688 6.02011 6.1688 5.88818 6.09539 5.79414Z" fill="white"/>
<path d="M7.70038 7.52414C7.61918 7.52451 7.54012 7.49815 7.47538 7.44914C7.39267 7.39251 7.33607 7.30513 7.31822 7.20649C7.30037 7.10785 7.32276 7.00617 7.38038 6.92414C7.81639 6.35654 7.81639 5.56674 7.38038 4.99914C7.27595 4.8364 7.31038 4.62118 7.46038 4.49914C7.54008 4.43865 7.64089 4.41302 7.7398 4.42809C7.83872 4.44317 7.92731 4.49766 7.98538 4.57914C8.6188 5.41244 8.6188 6.56585 7.98538 7.39914C7.91297 7.48012 7.809 7.52572 7.70038 7.52414Z" fill="white"/>
<path d="M9.48038 8.94414C9.39776 8.94381 9.31732 8.91758 9.25038 8.86914C9.17089 8.80789 9.11926 8.71734 9.10704 8.61773C9.09483 8.51813 9.12304 8.41778 9.18538 8.33914C10.2757 6.94165 10.2757 4.98163 9.18538 3.58414C9.07505 3.42561 9.10318 3.2092 9.25038 3.08414C9.41507 2.95712 9.65127 2.98609 9.78038 3.14914C11.0809 4.81729 11.0809 7.156 9.78038 8.82414C9.70363 8.90738 9.59337 8.95148 9.48038 8.94414Z" fill="white"/>
<path d="M8.59538 8.23414C8.51791 8.23079 8.44314 8.2047 8.38038 8.15914C8.22655 8.03981 8.18963 7.8226 8.29538 7.65914C9.05942 6.67689 9.05942 5.30139 8.29538 4.31914C8.18738 4.15815 8.2199 3.94137 8.37038 3.81914C8.51851 3.68872 8.74293 3.69753 8.88038 3.83914C9.35087 4.44756 9.60589 5.19504 9.60538 5.96414C9.60364 6.73287 9.34886 7.47965 8.88038 8.08914C8.81225 8.17815 8.70744 8.23147 8.59538 8.23414Z" fill="white"/>
<path d="M4.05038 7.52414C3.93216 7.52494 3.82067 7.4692 3.75038 7.37414C3.11784 6.5387 3.11784 5.38459 3.75038 4.54914C3.83077 4.44196 3.96223 4.38581 4.09524 4.40183C4.22825 4.41786 4.34261 4.50363 4.39524 4.62683C4.44787 4.75004 4.43077 4.89196 4.35038 4.99914C3.91355 5.56832 3.91355 6.35996 4.35038 6.92914C4.47072 7.09683 4.4352 7.32991 4.27038 7.45414C4.20552 7.49859 4.129 7.52294 4.05038 7.52414Z" fill="white"/>
<path d="M2.27538 8.94414C2.15839 8.94457 2.04773 8.89108 1.97538 8.79914C0.674873 7.131 0.674873 4.79229 1.97538 3.12414C2.10706 2.97783 2.32945 2.95824 2.48469 3.07927C2.63992 3.2003 2.67516 3.42076 2.56538 3.58414C1.47602 4.98383 1.47602 6.94446 2.56538 8.34414C2.69187 8.50721 2.66282 8.74184 2.50038 8.86914C2.43484 8.9166 2.35629 8.94278 2.27538 8.94414Z" fill="white"/>
<path d="M3.17038 8.23414C3.05339 8.23457 2.94273 8.18108 2.87038 8.08914C2.40087 7.47829 2.14603 6.72959 2.14538 5.95914C2.14846 5.19051 2.40702 4.44473 2.88038 3.83914C2.95883 3.72498 3.09383 3.66336 3.23148 3.67888C3.36913 3.69441 3.48701 3.78455 3.53805 3.91332C3.5891 4.04209 3.565 4.18852 3.47538 4.29414C2.71135 5.27639 2.71135 6.65189 3.47538 7.63414C3.53301 7.71617 3.55539 7.81785 3.53754 7.91649C3.51969 8.01513 3.4631 8.10251 3.38038 8.15914C3.31976 8.20514 3.24643 8.23133 3.17038 8.23414Z" fill="white"/>
<path d="M5.88038 10.3391C5.6744 10.3364 5.50808 10.1701 5.50538 9.96414V7.96414C5.50538 7.75704 5.67328 7.58914 5.88038 7.58914C6.08749 7.58914 6.25538 7.75704 6.25538 7.96414V9.96414C6.25269 10.1701 6.08636 10.3364 5.88038 10.3391Z" fill="white"/>
</svg>
