<svg width="12" height="12" viewBox="0 0 12 12" fill="none" xmlns="http://www.w3.org/2000/svg">
<path d="M7.88 3.32178C7.67289 3.32178 7.505 3.48968 7.505 3.69678C7.505 3.90389 7.67289 4.07178 7.88 4.07178C8.77602 4.07721 9.50182 4.80078 9.51 5.69678V6.69678C9.50182 7.59278 8.77602 8.31636 7.88 8.32178H6.77L7.455 7.64178C7.60123 7.49538 7.60123 7.25819 7.455 7.11178C7.38536 7.04031 7.28979 7 7.19 7C7.09021 7 6.99464 7.04031 6.925 7.11178L5.6 8.43178C5.5661 8.46646 5.53897 8.50716 5.52 8.55178C5.48512 8.64531 5.48512 8.74826 5.52 8.84178C5.53897 8.88641 5.5661 8.92711 5.6 8.96178L6.925 10.2818C7.07141 10.428 7.30859 10.428 7.455 10.2818C7.60123 10.1354 7.60123 9.89819 7.455 9.75178L6.77 9.07178H7.88C9.19022 9.06633 10.2518 8.00699 10.26 6.69678V5.69678C10.2518 4.38658 9.19022 3.32724 7.88 3.32178Z" fill="#0B0B0B"/>
<path d="M6.24 3.84178C6.27487 3.74826 6.27487 3.64531 6.24 3.55178C6.21927 3.50813 6.19233 3.46771 6.16 3.43178L4.835 2.11178C4.76536 2.04031 4.66979 2 4.57 2C4.47021 2 4.37464 2.04031 4.305 2.11178C4.15877 2.25819 4.15877 2.49538 4.305 2.64178L4.99 3.32178H3.88C2.56978 3.32724 1.50821 4.38658 1.5 5.69678V6.69678C1.50821 8.00699 2.56978 9.06633 3.88 9.07178C4.08711 9.07178 4.255 8.90389 4.255 8.69678C4.255 8.48968 4.08711 8.32178 3.88 8.32178C2.98398 8.31636 2.25818 7.59279 2.25 6.69678V5.69678C2.25818 4.80078 2.98398 4.07721 3.88 4.07178H4.985L4.305 4.75179C4.15877 4.89819 4.15877 5.13538 4.305 5.28179C4.45141 5.42801 4.68859 5.42801 4.835 5.28179L6.16 3.96178C6.19233 3.92586 6.21927 3.88544 6.24 3.84178Z" fill="#0B0B0B"/>
</svg>
