<svg width="13" height="12" viewBox="0 0 13 12" fill="none" xmlns="http://www.w3.org/2000/svg">
<path fill-rule="evenodd" clip-rule="evenodd" d="M6.5 1C3.73858 1 1.5 3.23858 1.5 6C1.5 8.76142 3.73858 11 6.5 11C9.26142 11 11.5 8.76142 11.5 6C11.5 4.67392 10.9732 3.40215 10.0355 2.46447C9.09785 1.52678 7.82608 1 6.5 1ZM2.25 6C2.24514 4.30895 3.2456 2.7767 4.7958 2.101C6.346 1.4253 8.14948 1.73537 9.385 2.89L3.385 8.89C2.65271 8.10618 2.24682 7.07266 2.25 6ZM3.95 9.39C4.68337 9.94727 5.57892 10.2493 6.5 10.25C8.11142 10.2538 9.58572 9.34388 10.3047 7.90173C11.0236 6.45959 10.8629 4.73455 9.89 3.45L3.95 9.39Z" fill="black"/>
</svg>
