<svg width="12" height="13" viewBox="0 0 12 13" fill="none" xmlns="http://www.w3.org/2000/svg">
<path fill-rule="evenodd" clip-rule="evenodd" d="M8 4.88C7.98366 5.69669 7.31685 6.35016 6.5 6.35C5.69289 6.33671 5.04104 5.68706 5.025 4.88V4.315C5.0249 3.98219 5.15913 3.66343 5.39727 3.43094C5.6354 3.19845 5.95729 3.07192 6.29 3.08H6.76C7.08841 3.07867 7.40382 3.2082 7.63651 3.43995C7.8692 3.6717 8 3.98659 8 4.315V4.88ZM6.275 3.815C5.99886 3.815 5.775 4.03886 5.775 4.315L5.795 4.88C5.795 5.28041 6.1196 5.605 6.52 5.605C6.92041 5.605 7.245 5.28041 7.245 4.88V4.315C7.245 4.03886 7.02114 3.815 6.745 3.815H6.275Z" fill="white"/>
<path fill-rule="evenodd" clip-rule="evenodd" d="M11.74 8.15L11.795 8.93C11.8528 9.17411 11.7964 9.43126 11.6417 9.62875C11.487 9.82624 11.2509 9.94262 11 9.945H8.755C8.55915 10.1538 8.28624 10.273 8 10.275H5C4.69929 10.279 4.41143 10.1533 4.21 9.93C4.16348 9.93516 4.11653 9.93516 4.07 9.93H1.775C1.53099 9.9208 1.30359 9.80397 1.15401 9.61096C1.00443 9.41795 0.948032 9.16859 1 8.93L1.075 8.15C1.14796 7.77782 1.47081 7.50705 1.85 7.5H4C4.08975 7.49502 4.17963 7.5069 4.265 7.535C4.45683 7.29538 4.74807 7.15713 5.055 7.16H7.945C8.23397 7.15892 8.50928 7.2829 8.7 7.5C8.73483 7.49508 8.77018 7.49508 8.805 7.5H10.965C11.3442 7.50705 11.667 7.77782 11.74 8.15ZM8.775 9.18H11.04C11.0553 9.15054 11.0571 9.1159 11.045 9.085V8.985L10.995 8.275L10.965 8.235H8.70001C8.48863 8.23577 8.28687 8.14671 8.145 7.99C8.0954 7.93067 8.02234 7.89596 7.945 7.895H5.055C4.97124 7.89608 4.89236 7.9346 4.84 8C4.69727 8.16943 4.48654 8.26655 4.265 8.265C4.17429 8.26542 4.08433 8.24844 4 8.215H1.875C1.845 8.215 1.845 8.225 1.845 8.255L1.795 8.965V9.065C1.78131 9.09519 1.78131 9.12981 1.795 9.16H4.09C4.14323 9.15511 4.19678 9.15511 4.25 9.16C4.4532 9.16377 4.64549 9.25266 4.78 9.405C4.83517 9.46956 4.91512 9.50772 5 9.51H8.02C8.10505 9.50835 8.18524 9.47008 8.24001 9.405C8.38059 9.26076 8.57359 9.1796 8.775 9.18Z" fill="white"/>
<path fill-rule="evenodd" clip-rule="evenodd" d="M10.985 5.63C10.985 6.23751 10.4925 6.73 9.885 6.73C9.5924 6.73133 9.31132 6.61603 9.10395 6.40959C8.89658 6.20316 8.78 5.92261 8.78 5.63V5.21C8.78 4.96468 8.87746 4.7294 9.05093 4.55593C9.2244 4.38246 9.45968 4.285 9.705 4.285H10.06C10.5709 4.285 10.985 4.69914 10.985 5.21V5.63ZM9.58126 5.10626C9.54844 5.13908 9.53 5.18359 9.53 5.23V5.65C9.5513 5.82853 9.70271 5.96294 9.8825 5.96294C10.0623 5.96294 10.2137 5.82853 10.235 5.65V5.23C10.235 5.13335 10.1567 5.055 10.06 5.055H9.705C9.65859 5.055 9.61408 5.07344 9.58126 5.10626Z" fill="white"/>
<path fill-rule="evenodd" clip-rule="evenodd" d="M3.71106 6.40959C3.50368 6.61603 3.22261 6.73133 2.93 6.73C2.63827 6.73 2.35848 6.61411 2.15219 6.40782C1.9459 6.20153 1.83 5.92174 1.83 5.63V5.21C1.83 4.69914 2.24414 4.285 2.755 4.285H3.11C3.62087 4.285 4.035 4.69914 4.035 5.21V5.63C4.03501 5.92261 3.91843 6.20316 3.71106 6.40959ZM2.755 5.055C2.65835 5.055 2.58 5.13335 2.58 5.23V5.65C2.6013 5.82853 2.75271 5.96294 2.9325 5.96294C3.1123 5.96294 3.2637 5.82853 3.285 5.65V5.23C3.285 5.13335 3.20665 5.055 3.11 5.055H2.755Z" fill="white"/>
</svg>
